<svg width="32" height="39" viewBox="0 0 32 39" fill="none" xmlns="http://www.w3.org/2000/svg">
<path opacity="0.46" d="M23.9775 0.209961C24.233 0.199951 24.4312 0.488306 24.3047 0.758789C23.3202 2.84736 23.2885 4.63913 23.8027 6.34375C24.3127 8.03427 25.3591 9.63294 26.5029 11.3398C28.7975 14.7641 31.5361 18.6945 31.5361 24.9248C31.5359 31.8817 25.4173 38.3202 16.4404 38.3203C7.47861 38.3203 0.209985 30.9867 0.209961 21.9365C0.210014 17.5293 2.68001 12.2353 6.90137 7.96777C11.1185 3.7047 17.0627 0.487897 23.9775 0.209961ZM20.2207 3.33594C14.8979 5.55438 11.112 8.4442 8.65723 11.792C6.20134 15.1413 5.086 18.9373 5.08594 22.9502C5.08604 24.8263 6.57395 26.6169 8.67578 27.9229C10.7893 29.2361 13.5825 30.0996 16.3145 30.0996C19.0619 30.0995 21.4274 29.004 23.1045 27.6875C23.943 27.0292 24.614 26.3124 25.0771 25.6426C25.535 24.9804 25.8076 24.3368 25.8076 23.8311C25.8073 18.4476 23.1026 14.8607 17.8135 8.69043C17.787 8.65951 17.7577 8.59675 17.75 8.47852C17.7425 8.36204 17.7568 8.211 17.7969 8.02832C17.877 7.66308 18.0517 7.20227 18.3018 6.69824C18.8016 5.69102 19.5856 4.54298 20.4502 3.67773L20.2207 3.33594Z" fill="#BD5DEE" fill-opacity="0.5" stroke="#BD5DEE" stroke-width="0.42"/>
</svg>
