<svg width="60" height="73" viewBox="0 0 60 73" fill="none" xmlns="http://www.w3.org/2000/svg">
<path d="M45.3174 0.397461C45.7705 0.379381 46.1283 0.857459 45.9736 1.33887L45.9355 1.43555C44.0752 5.38254 44.0165 8.76778 44.9883 11.9893C45.9522 15.1844 47.928 18.2065 50.0898 21.4326C54.4267 27.9045 59.6035 35.332 59.6035 47.1074C59.6035 60.2564 48.039 72.4257 31.0723 72.4258C14.1345 72.4258 0.396746 58.5656 0.396484 41.4609C0.396484 33.1313 5.06447 23.1253 13.043 15.0596C21.0134 7.00204 32.248 0.922774 45.3174 0.397461ZM38.2178 6.30469C28.1576 10.4975 21.003 15.9598 16.3633 22.2871C11.7215 28.6174 9.61328 35.7923 9.61328 43.377C9.61358 46.9226 12.4252 50.3053 16.3975 52.7734C20.3921 55.2554 25.6706 56.8886 30.834 56.8887C36.0267 56.8885 40.4973 54.8182 43.667 52.3301C45.2522 51.0857 46.5201 49.73 47.3955 48.4639C48.2607 47.2124 48.7772 45.9979 48.7773 45.042C48.777 34.8669 43.6637 28.0879 33.667 16.4258C33.617 16.3674 33.5623 16.2481 33.5479 16.0244C33.5336 15.8041 33.5609 15.5185 33.6367 15.1729C33.7881 14.4827 34.1183 13.6135 34.5908 12.6611C35.5355 10.7573 37.0171 8.58664 38.6514 6.95117L38.2178 6.30469Z" fill="#BD5DEE" stroke="#BD5DEE" stroke-width="0.793804"/>
</svg>
